# xmcd
#
# Track frame offsets:
#	150
#	19337
#	34312
#	49667
#	63712
#	79848
#
# Disc length: 1296 seconds
#
# Revision: 0
# Processed by: cddbd v1.5.2PL0 Copyright (c) Steve Scherf et al.
# Submitted via: EasyCDDAExtractor 9.1.0.1
#
DISCID=4e050e06
DTITLE=Various Artist - The Disc Vol. 16
DYEAR=2004
DGENRE=Gospel
TTITLE0=Mike Manuel - Got My Name In The Big Book
TTITLE1=Tony Pence - Jack and Thelma
TTITLE2=Ronnie Yown - Where Could I Go But To The Lord
TTITLE3=Mary Faye Jackson - My Whole World Is Wrapped Around You
TTITLE4=Bobby Fletcher - Back Of The Book
TTITLE5=Joel Hughes - There's Healing In The Air
EXTD=
EXTT0=
EXTT1=
EXTT2=
EXTT3=
EXTT4=
EXTT5=
PLAYORDER=
